<?xml version="1.0" encoding="UTF-8"?>
<svg version="1.1" xmlns="http://www.w3.org/2000/svg" width="1000" height="250">
<path d="M0 0 C17.49 0 34.98 0 53 0 C57.29 28.38 61.58 56.76 66 86 C67.95817812 82.08364376 68.94018058 78.46158554 69.86352539 74.23388672 C70.03777542 73.45622955 70.21202545 72.67857239 70.39155579 71.87734985 C70.96508071 69.31251203 71.5312867 66.74611394 72.09765625 64.1796875 C72.49543388 62.39645701 72.89375176 60.61334696 73.29258728 58.83035278 C74.34055856 54.14020326 75.38269095 49.44877758 76.42315674 44.75695801 C78.09084924 37.2395256 79.76560615 29.72367227 81.44372368 22.20856094 C82.02951369 19.58000676 82.61173685 16.95068024 83.19361877 14.32125854 C83.55091573 12.71658708 83.90832628 11.11194091 84.26586914 9.50732422 C84.50823303 8.40544769 84.50823303 8.40544769 84.75549316 7.28131104 C85.88636524 2.22726952 85.88636524 2.22726952 87 0 C104.49 0 121.98 0 140 0 C144.5 16.875 144.5 16.875 145.92285156 23.22045898 C146.0794928 23.91515289 146.23613403 24.6098468 146.39752197 25.32559204 C146.89803219 27.54847255 147.39439864 29.77225344 147.890625 31.99609375 C148.24337113 33.56655133 148.59638334 35.13694917 148.949646 36.70729065 C149.86628331 40.78522976 150.77937233 44.86395489 151.69165039 48.94287109 C152.62817223 53.12712125 153.56815025 57.31059481 154.5078125 61.49414062 C156.34186961 69.66201661 158.17216801 77.8307287 160 86 C160.33 86 160.66 86 161 86 C165.29 57.62 169.58 29.24 174 0 C191.49 0 208.98 0 227 0 C222.40501588 21.82617457 222.40501588 21.82617457 220.45385742 29.78466797 C220.23043167 30.70646347 220.00700592 31.62825897 219.77680969 32.57798767 C219.05574381 35.55005484 218.33065269 38.52112274 217.60546875 41.4921875 C217.08960988 43.61510018 216.57401627 45.73807732 216.05867004 47.8611145 C214.7109449 53.41032891 213.35981778 58.95870916 212.00787354 64.50689697 C210.65368347 70.06662246 209.30248612 75.62707496 207.95117188 81.1875 C206.41835935 87.49446206 204.88535636 93.8013761 203.34965515 100.1076355 C199.54561409 115.7335067 195.77357168 131.3666316 192 147 C171.87 147 151.74 147 131 147 C125.19339807 121.02865317 119.54170459 95.02898398 114 69 C113.67 69 113.34 69 113 69 C112.80177139 69.93294388 112.60354279 70.86588776 112.39930725 71.82710266 C110.53246873 80.61209226 108.66381953 89.39669499 106.79338932 98.1809206 C105.8318046 102.69716152 104.87086202 107.2135371 103.91137695 111.73022461 C102.98568675 116.08771044 102.0583229 120.44483697 101.12978935 124.80171776 C100.77553914 126.46538755 100.42189585 128.12918669 100.06886482 129.79311562 C99.5749331 132.12064013 99.07886056 134.4476986 98.58227539 136.7746582 C98.43625885 137.46517776 98.29024231 138.15569733 98.13980103 138.86714172 C97.54555224 141.64254693 96.89865378 144.30403865 96 147 C75.87 147 55.74 147 35 147 C26.64728503 113.22198782 18.42848107 79.41657348 10.34450912 45.57348633 C9.62303729 42.55428649 8.90068985 39.5352973 8.1781311 36.51635742 C7.03144123 31.72448895 5.88720588 26.93204098 4.74495506 22.13911247 C4.31829784 20.35016447 3.89090828 18.56139095 3.46276283 16.77279854 C2.87488189 14.31591678 2.28983482 11.85837772 1.70556641 9.40063477 C1.44396713 8.31127373 1.44396713 8.31127373 1.17708302 7.1999054 C0 2.22852538 0 2.22852538 0 0 Z " fill="#000000" transform="translate(22,57)"/>
<path d="M0 0 C17.16 0 34.32 0 52 0 C53.3663892 5.46555679 54.51964502 10.71112564 55.32861328 16.25195312 C55.44594818 17.03340698 55.56328308 17.81486084 55.68417358 18.61999512 C56.06660331 21.17320763 56.44350248 23.72720262 56.8203125 26.28125 C57.08615417 28.06348704 57.35234402 29.84567218 57.61886597 31.62780762 C58.31607262 36.29611941 59.00857531 40.96511701 59.70007324 45.63427734 C60.40786505 50.40765297 61.12014137 55.18035915 61.83203125 59.953125 C63.22572348 69.30143658 64.61444306 78.65047944 66 88 C69.54656544 72.8899189 73.06757524 57.77496943 76.4921875 42.63671875 C76.7724176 41.39947052 77.05264771 40.16222229 77.34136963 38.88748169 C78.48140148 33.85232045 79.6209788 28.81706264 80.75488281 23.78051758 C81.60154728 20.02350287 82.45271726 16.26753327 83.3046875 12.51171875 C83.56192596 11.36418625 83.81916443 10.21665375 84.084198 9.03434753 C84.3217984 7.99007095 84.5593988 6.94579437 84.80419922 5.86987305 C85.01180878 4.94998093 85.21941833 4.03008881 85.43331909 3.08232117 C86 1 86 1 87 0 C88.65738443 -0.09346915 90.31874644 -0.11744977 91.97875977 -0.11352539 C93.03978409 -0.11344986 94.10080841 -0.11337433 95.19398499 -0.11329651 C96.348134 -0.10813522 97.50228302 -0.10297394 98.69140625 -0.09765625 C99.86638168 -0.0962413 101.04135712 -0.09482635 102.25193787 -0.09336853 C106.02215064 -0.08774992 109.79230504 -0.07519426 113.5625 -0.0625 C116.11132727 -0.0574874 118.66015547 -0.05292408 121.20898438 -0.04882812 C127.47267633 -0.03777444 133.73633399 -0.02101821 140 0 C144.72828961 20.10630025 149.348673 40.23643477 153.9375 60.375 C154.0869595 61.03091503 154.23641899 61.68683006 154.39040756 62.36262131 C156.26154238 70.57479165 158.13136633 78.78726017 160 87 C162.13002699 75.99975297 164.00405217 64.98126709 165.69921875 53.90625 C165.94132841 52.33724548 166.18366802 50.76827644 166.42622375 49.19934082 C167.05481709 45.1293967 167.68034951 41.05898827 168.30517578 36.98846436 C169.06042916 32.072686 169.81960653 27.1575122 170.57810211 22.24223328 C171.72168995 14.82860653 172.86038891 7.41424399 174 0 C191.49 0 208.98 0 227 0 C218.7933768 34.82810823 210.51350684 69.63778278 202.1875 104.4375 C201.93555626 105.49053818 201.68361252 106.54357635 201.42403412 107.62852478 C198.28391472 120.75264341 195.14212116 133.87636031 192 147 C171.87 147 151.74 147 131 147 C128.43215702 136.72862806 125.96660558 126.51577286 123.80078125 116.1640625 C123.51776669 114.82401549 123.23440852 113.484041 122.95072937 112.14413452 C122.06805226 107.97177532 121.18998136 103.79845452 120.3125 99.625 C119.28362456 94.73268616 118.25281422 89.8407939 117.21748924 84.94984055 C116.80697801 83.00590663 116.39983899 81.06126157 115.99275208 79.11660767 C115.7454686 77.94713593 115.49818512 76.77766418 115.2434082 75.57275391 C114.91842094 74.02631699 114.91842094 74.02631699 114.58686829 72.44863892 C114.1008192 70.01294462 114.1008192 70.01294462 113 68 C107.39 94.07 101.78 120.14 96 147 C75.87 147 55.74 147 35 147 C32.58953968 137.9607738 30.20732979 128.94630565 28.02319336 119.85498047 C27.75432816 118.74225769 27.48546295 117.62953491 27.20845032 116.48309326 C26.33384896 112.86154022 25.46179513 109.23937939 24.58984375 105.6171875 C23.97511914 103.06898718 23.36025355 100.52082087 22.74525452 97.97268677 C21.4623454 92.65607238 20.18077916 87.33913582 18.90014648 82.02197266 C17.42809071 75.91005387 15.95435187 69.79854299 14.47960943 63.68727195 C13.04906556 57.75915469 11.61930279 51.83084943 10.18997383 45.90243912 C9.58691513 43.40117493 8.98373113 40.89994096 8.38041496 38.39873886 C7.53541313 34.89472985 6.69128457 31.39051161 5.84741211 27.88623047 C5.60266144 26.87184906 5.35791077 25.85746765 5.10574341 24.81234741 C4.39919384 21.8759822 3.69848389 18.93829372 3 16 C2.72159334 14.83747837 2.44318668 13.67495674 2.15634346 12.47720718 C1.88102224 11.31145031 1.60570103 10.14569344 1.32203674 8.9446106 C1.06929269 7.88010744 0.81654863 6.81560429 0.55614567 5.71884346 C0 3 0 3 0 0 Z " fill="#000000" transform="translate(542,57)"/>
<path d="M0 0 C14.870625 -0.0825 29.74125 -0.165 45.0625 -0.25 C49.72898682 -0.28641602 54.39547363 -0.32283203 59.20336914 -0.36035156 C64.97546387 -0.37841797 64.97546387 -0.37841797 67.69187927 -0.3817749 C69.55792577 -0.38785033 71.42395823 -0.40177684 73.28990173 -0.42230225 C90.4750049 -0.60161345 107.11538772 0.46135645 120.3125 12.8125 C128.65293677 21.601526 129.47583385 30.83725979 129.26953125 42.50390625 C128.89535406 51.4122726 125.34913595 57.58341948 119.3046875 64.015625 C115.60863874 67.19798562 111.49179241 69.16830597 107 71 C107.72445312 71.37511719 108.44890625 71.75023437 109.1953125 72.13671875 C119.96360502 77.83673492 127.7858578 83.87143687 131.875 95.8125 C134.76635261 107.03164068 133.31126614 118.53905237 127.4921875 128.609375 C119.88212428 139.15727658 108.12898265 144.43426594 95.57723999 146.60296631 C87.35956297 147.51503669 79.05779733 147.24023204 70.80078125 147.1953125 C68.98514936 147.19236645 67.16951577 147.19032948 65.35388184 147.18920898 C58.67339507 147.17878679 51.99294483 147.15086436 45.3125 147.125 C30.359375 147.08375 15.40625 147.0425 0 147 C0 98.49 0 49.98 0 0 Z M49 37 C49 43.6 49 50.2 49 57 C52.70877584 57.08114826 56.41576511 57.14057594 60.125 57.1875 C61.69507813 57.22520508 61.69507813 57.22520508 63.296875 57.26367188 C71.09374151 57.36789965 71.09374151 57.36789965 78 54 C80.05717759 51.15608311 80.26227799 48.94855173 79.9375 45.5 C79.88464844 44.7471875 79.83179688 43.994375 79.77734375 43.21875 C78.64197292 39.97809357 76.82579792 38.88712287 74 37 C71.11092204 36.45516934 71.11092204 36.45516934 68.04296875 36.609375 C66.93115234 36.62226562 65.81933594 36.63515625 64.67382812 36.6484375 C62.9480957 36.69871094 62.9480957 36.69871094 61.1875 36.75 C60.01767578 36.76804688 58.84785156 36.78609375 57.64257812 36.8046875 C54.76136718 36.85172768 51.88057844 36.92346803 49 37 Z M49 89 C49 95.93 49 102.86 49 110 C52.85435694 110.05415958 56.70794559 110.09375289 60.5625 110.125 C62.19155273 110.15013672 62.19155273 110.15013672 63.85351562 110.17578125 C73.50221032 110.43950491 73.50221032 110.43950491 81.9375 106.375 C83.80546599 102.19954661 83.65800822 97.92340865 82.1875 93.625 C80.42609295 91.21465351 78.52476225 90.13945616 75.67114258 89.38110352 C72.82838489 88.97551493 70.13292805 88.88698969 67.26171875 88.90234375 C65.66166992 88.90717773 65.66166992 88.90717773 64.02929688 88.91210938 C62.92650391 88.92048828 61.82371094 88.92886719 60.6875 88.9375 C59.00430664 88.94426758 59.00430664 88.94426758 57.28710938 88.95117188 C54.52471664 88.96292674 51.76235144 88.98086131 49 89 Z " fill="#000000" transform="translate(394,57)"/>
<path d="M0 0 C34.32 0 68.64 0 104 0 C104 11.88 104 23.76 104 36 C103 37 103 37 100.82969666 37.12025452 C99.87261307 37.11803391 98.91552948 37.11581329 97.92944336 37.11352539 C96.84839828 37.11344986 95.76735321 37.11337433 94.65354919 37.11329651 C92.889515 37.10555458 92.889515 37.10555458 91.08984375 37.09765625 C89.89267227 37.0962413 88.69550079 37.09482635 87.46205139 37.09336853 C83.62050934 37.08774979 79.77902457 37.07519411 75.9375 37.0625 C73.34049563 37.05748741 70.74349035 37.05292409 68.14648438 37.04882812 C61.76430068 37.03777427 55.38216007 37.02049708 49 37 C49 42.61 49 48.22 49 54 C64.84 54 80.68 54 97 54 C97 65.88 97 77.76 97 90 C81.16 90 65.32 90 49 90 C49 96.6 49 103.2 49 110 C67.15 110 85.3 110 104 110 C104 122.21 104 134.42 104 147 C69.68 147 35.36 147 0 147 C0 98.49 0 49.98 0 0 Z " fill="#000000" transform="translate(269,57)"/>
<path d="M0 0 C38.28 0 76.56 0 116 0 C116 36 116 36 110.6875 44.375 C107.35546875 47.2734375 107.35546875 47.2734375 105.64599609 48.60449219 C102.79529704 51.02137083 100.71340389 54.01007717 98.5 57 C94.26391347 62.49600345 89.8171217 67.77938263 85.27612305 73.0246582 C81.72557706 77.1318797 78.2930146 81.31463371 74.92578125 85.57421875 C72.14811114 89.07306893 69.30709824 92.51906521 66.46875 95.96875 C62.95016342 100.28903985 59.48069833 104.64912709 56 109 C85.7 109.495 85.7 109.495 116 110 C116 122.21 116 134.42 116 147 C77.72 147 39.44 147 0 147 C0 112 0 112 6.1875 102.3125 C10.0625 98.5625 10.0625 98.5625 12.05859375 96.80078125 C15.31308571 93.78202714 17.95568782 90.29898617 20.6875 86.8125 C21.75737876 85.49078053 22.82896881 84.17044428 23.90234375 82.8515625 C27.35110297 78.5779831 30.73980959 74.25844091 34.12231445 69.93237305 C37.49032822 65.63067682 40.9229978 61.38706882 44.39746094 57.1706543 C47.54469768 53.34350656 50.66596172 49.49528388 53.7890625 45.6484375 C54.38823486 44.91069092 54.98740723 44.17294434 55.60473633 43.4128418 C57.06997547 41.60868393 58.53505972 39.80440054 60 38 C59.26306412 37.98969254 58.52612823 37.97938507 57.76686096 37.96876526 C50.83578924 37.87095357 43.90480098 37.76846284 36.97387791 37.66066074 C33.41027032 37.60539973 29.84665457 37.55197482 26.28295898 37.50268555 C22.18984755 37.44599468 18.0968939 37.38142682 14.00390625 37.31640625 C12.71851456 37.29969376 11.43312286 37.28298126 10.10877991 37.26576233 C8.92763107 37.24581711 7.74648224 37.22587189 6.52954102 37.20532227 C5.48363297 37.18977798 4.43772491 37.1742337 3.36012268 37.15821838 C1 37 1 37 0 36 C0 24.12 0 12.24 0 0 Z " fill="#000000" transform="translate(862,57)"/>
<path d="M0 0 C16.17 0 32.34 0 49 0 C49 48.51 49 97.02 49 147 C32.83 147 16.66 147 0 147 C0 98.49 0 49.98 0 0 Z " fill="#000000" transform="translate(789,57)"/>
</svg>
