<?xml version="1.0" encoding="UTF-8"?>
<svg version="1.1" xmlns="http://www.w3.org/2000/svg" width="1000" height="250">
<path d="M0 0 C17.82 0 35.64 0 54 0 C58.29 28.38 62.58 56.76 67 86 C70.12043226 74.41551182 70.12043226 74.41551182 72.92285156 62.77954102 C73.0794928 62.08484711 73.23613403 61.3901532 73.39752197 60.67440796 C73.89803219 58.45152745 74.39439864 56.22774656 74.890625 54.00390625 C75.24337113 52.43344867 75.59638334 50.86305083 75.949646 49.29270935 C76.86628331 45.21477024 77.77937233 41.13604511 78.69165039 37.05712891 C79.79363486 32.13361454 80.90015533 27.21111775 82.00588989 22.28844452 C83.67401462 14.85972465 85.3364769 7.4297584 87 0 C104.82 0 122.64 0 141 0 C145.5 16.875 145.5 16.875 146.92285156 23.22045898 C147.0794928 23.91515289 147.23613403 24.6098468 147.39752197 25.32559204 C147.89803219 27.54847255 148.39439864 29.77225344 148.890625 31.99609375 C149.24337113 33.56655133 149.59638334 35.13694917 149.949646 36.70729065 C150.86628331 40.78522976 151.77937233 44.86395489 152.69165039 48.94287109 C153.62817223 53.12712125 154.56815025 57.31059481 155.5078125 61.49414062 C157.34186961 69.66201661 159.17216801 77.8307287 161 86 C163.05242293 75.41025772 164.86195764 64.81075938 166.4453125 54.140625 C166.66252218 52.69329256 166.8800481 51.24600754 167.09786987 49.79876709 C167.66210443 46.04601314 168.22324899 42.29280528 168.7833252 38.53942871 C169.68574864 32.49264352 170.59119628 26.44631677 171.50011826 20.40050507 C171.81479209 18.30243209 172.12698958 16.20400095 172.43899536 14.10552979 C172.62944427 12.83610535 172.81989319 11.56668091 173.01611328 10.25878906 C173.18249298 9.14344788 173.34887268 8.02810669 173.52029419 6.87896729 C174 4 174 4 175 0 C192.49 0 209.98 0 228 0 C226.87499136 9.00006909 226.87499136 9.00006909 225.85713196 13.2043457 C225.62883194 14.15670105 225.40053192 15.1090564 225.16531372 16.090271 C224.91651459 17.10848938 224.66771545 18.12670776 224.41137695 19.17578125 C224.01596458 20.81682831 224.01596458 20.81682831 223.61256409 22.49102783 C222.74202623 26.09922057 221.86522122 29.70585838 220.98828125 33.3125 C220.37595965 35.84423318 219.7640018 38.37605436 219.15238953 40.90795898 C217.86825437 46.22124786 216.5808951 51.53374669 215.29125977 56.84570312 C213.49371478 64.24975554 211.70219716 71.65525629 209.91182005 79.06104469 C208.50110989 84.89517842 207.08845177 90.7288407 205.67578125 96.5625 C205.38324274 97.77088531 205.09070423 98.97927063 204.78930092 100.22427368 C203.93907435 103.73439665 203.0875386 107.2441995 202.2355957 110.75390625 C201.99691772 111.73973694 201.75823975 112.72556763 201.5123291 113.74127197 C198.73354842 125.17595535 195.85424459 136.58302166 193 148 C172.54 148 152.08 148 131 148 C129.85660156 142.60914063 128.71320313 137.21828125 127.53515625 131.6640625 C126.81084865 128.25514358 126.08638019 124.84626045 125.36132812 121.4375 C124.20976126 116.02344659 123.05880178 110.60926891 121.91137695 105.19433594 C120.98657326 100.83018137 120.05911472 96.46659885 119.12978935 92.103405 C118.77517939 90.4361938 118.42153697 88.76877652 118.06886482 87.10115433 C117.57587205 84.77082687 117.07948703 82.44124678 116.58227539 80.11181641 C116.36325058 79.07064415 116.36325058 79.07064415 116.13980103 78.00843811 C115.37349156 74.40375238 115.37349156 74.40375238 114 71 C113.80177139 71.9204158 113.60354279 72.8408316 113.39930725 73.78913879 C111.53242355 82.45639465 109.66377452 91.12326824 107.79338932 99.78976917 C106.83182757 104.24547822 105.87089176 108.70132036 104.91137695 113.1574707 C103.98564899 117.456598 103.05828925 121.75537031 102.12978935 126.05389977 C101.77555444 127.6952424 101.42191114 129.33671283 101.06886482 130.97831154 C100.57489306 133.27469888 100.07883398 135.57062592 99.58227539 137.86645508 C99.43625885 138.5476239 99.29024231 139.22879272 99.13980103 139.93060303 C98.54256882 142.68299237 97.89171033 145.32486902 97 148 C76.87 148 56.74 148 36 148 C32.62499946 137.87499839 32.62499946 137.87499839 31.65458679 133.83398438 C31.4319516 132.91535614 31.20931641 131.99672791 30.97993469 131.05026245 C30.74767685 130.07461334 30.51541901 129.09896423 30.27612305 128.09375 C30.02197632 127.04019318 29.76782959 125.98663635 29.50598145 124.90115356 C28.67082795 121.43498837 27.84124652 117.96751545 27.01171875 114.5 C26.42537528 112.061604 25.83868402 109.62329161 25.25166321 107.18505859 C23.86415455 101.41824291 22.48015029 95.65059352 21.09786397 89.88252449 C19.39498475 82.77759553 17.68668996 75.67397003 15.97851562 68.5703125 C13.42743701 57.9586199 10.87716121 47.34673388 8.33521557 36.73284912 C6.98701753 31.10491758 5.63245754 25.47861807 4.26846313 19.85449219 C3.84895874 18.12010391 3.84895874 18.12010391 3.4209795 16.35067749 C2.88522937 14.13638143 2.34770341 11.92251408 1.80816936 9.70913696 C1.57050256 8.72537079 1.33283575 7.74160461 1.08796692 6.72802734 C0.7718909 5.42688492 0.7718909 5.42688492 0.44942951 4.09945679 C0 2 0 2 0 0 Z " fill="#FFFFFF" transform="translate(540,51)"/>
<path d="M0 0 C17.49 0 34.98 0 53 0 C55.66500755 17.15765733 55.66500755 17.15765733 56.8125 24.5546875 C57.59098834 29.57299181 58.36964745 34.59126914 59.14941406 39.609375 C59.7791006 43.66173359 60.40794578 47.71422197 61.03624344 51.76679611 C61.2743283 53.30153285 61.51270023 54.83622509 61.75138474 56.37086868 C63.23402797 65.90517331 64.66042245 75.44433102 66 85 C68.15862553 81.30193294 68.96186615 77.35530347 69.86352539 73.21801758 C70.03777542 72.43875412 70.21202545 71.65949066 70.39155579 70.85661316 C70.965021 68.28695427 71.53121389 65.71574643 72.09765625 63.14453125 C72.49540331 61.35889848 72.89372154 59.57339286 73.29258728 57.78800964 C74.34048422 53.09252746 75.38272701 48.39581124 76.42315674 43.69866943 C78.09110526 36.16909598 79.76390822 28.64061859 81.44372368 21.1136837 C82.03023345 18.47914395 82.61206449 15.84359945 83.19361877 13.20796204 C83.55083932 11.60319727 83.90824582 9.99847388 84.26586914 8.39379883 C84.42744507 7.6556192 84.589021 6.91743958 84.75549316 6.15689087 C85.8862446 1.1137554 85.8862446 1.1137554 87 0 C88.65738443 -0.09346915 90.31874644 -0.11744977 91.97875977 -0.11352539 C93.03978409 -0.11344986 94.10080841 -0.11337433 95.19398499 -0.11329651 C96.348134 -0.10813522 97.50228302 -0.10297394 98.69140625 -0.09765625 C99.86638168 -0.0962413 101.04135712 -0.09482635 102.25193787 -0.09336853 C106.02215064 -0.08774992 109.79230504 -0.07519426 113.5625 -0.0625 C116.11132727 -0.0574874 118.66015547 -0.05292408 121.20898438 -0.04882812 C127.47267633 -0.03777444 133.73633399 -0.02101821 140 0 C141.84432052 4.19115922 142.89655349 8.45790728 143.87939453 12.91137695 C144.14317902 14.08290062 144.14317902 14.08290062 144.41229248 15.27809143 C144.98975401 17.8472858 145.56131243 20.41775484 146.1328125 22.98828125 C146.53315465 24.77483641 146.9338658 26.56130892 147.33493042 28.34770203 C148.38745542 33.04041029 149.43497252 37.73422263 150.48144531 42.42828369 C151.55100999 47.22174717 152.62531448 52.01414787 153.69921875 56.80664062 C155.80411542 66.20339388 157.90372227 75.60132052 160 85 C161.45914271 80.20332897 162.48284038 75.55592444 163.22094727 70.58349609 C163.37990982 69.52599403 163.37990982 69.52599403 163.54208374 68.4471283 C163.88785529 66.1398542 164.22712492 63.83167406 164.56640625 61.5234375 C164.80733379 59.9086764 165.04870963 58.29398213 165.29051208 56.67935181 C165.92376704 52.44374632 166.55167377 48.20736618 167.17822266 43.97076416 C168.18302521 37.18339951 169.19641114 30.39730986 170.20899773 23.61110306 C170.56109623 21.24659679 170.91117646 18.88179885 171.26087952 16.51693726 C171.4767074 15.06385896 171.6925619 13.61078461 171.90844727 12.15771484 C172.09560806 10.89309418 172.28276886 9.62847351 172.4756012 8.32553101 C172.91506029 5.53865423 173.44669502 2.76652491 174 0 C191.49 0 208.98 0 227 0 C225.87500356 10.12496794 225.87500356 10.12496794 224.85040283 14.3447876 C224.50578506 15.78188583 224.50578506 15.78188583 224.15420532 17.24801636 C223.90383514 18.2673526 223.65346497 19.28668884 223.39550781 20.33691406 C223.13029327 21.43591034 222.86507874 22.53490662 222.59182739 23.66720581 C221.717491 27.28463502 220.83533535 30.90010878 219.953125 34.515625 C219.33826915 37.0530821 218.72391799 39.59066154 218.11004639 42.12835693 C216.65777483 48.12837375 215.19992937 54.12702122 213.7399776 60.12517333 C211.93658147 67.53544603 210.14005831 74.94738157 208.34375 82.359375 C206.50113233 89.96193438 204.65794968 97.56435305 202.80987549 105.16558838 C202.24726743 107.4805079 201.68466555 109.79542892 201.12207031 112.11035156 C200.7212216 113.75833426 200.7212216 113.75833426 200.31227493 115.43960953 C199.03078676 120.7168185 197.76068749 125.99631767 196.51501465 131.28210449 C196.16842363 132.75118067 196.16842363 132.75118067 195.81483078 134.24993515 C195.38442432 136.07895534 194.95619424 137.90848956 194.53053665 139.73862076 C193.10952057 145.78095887 193.10952057 145.78095887 192 148 C171.87 148 151.74 148 131 148 C129.51822095 143.55466286 128.36546805 139.44465507 127.39599609 134.89306641 C127.24940048 134.20944031 127.10280487 133.52581421 126.95176697 132.82147217 C126.47241291 130.58218122 125.99789242 128.34189609 125.5234375 126.1015625 C125.19029118 124.5406568 124.85684142 122.97981582 124.52310181 121.41903687 C123.64878735 117.32622247 122.77857956 113.23254559 121.90924072 109.13867188 C121.02011025 104.9551977 120.1270757 100.77255726 119.234375 96.58984375 C117.48577374 88.3940375 115.74151253 80.19731544 114 72 C112.00129412 75.48817871 111.23814961 78.92871114 110.41186523 82.84814453 C110.26687592 83.52826599 110.1218866 84.20838745 109.97250366 84.90911865 C109.4961601 87.14931468 109.02745941 89.39104062 108.55859375 91.6328125 C108.22810073 93.19183969 107.89704306 94.75074728 107.56544495 96.30953979 C106.69482629 100.40786141 105.83030473 104.50744279 104.9675293 108.60742188 C103.58435808 115.1773259 102.19379724 121.7456594 100.7997303 128.31325912 C100.31354426 130.60943209 99.83108475 132.90636601 99.34898376 135.20339966 C99.05236116 136.60584111 98.75561981 138.00825745 98.45874023 139.41064453 C98.20051987 140.63768097 97.9422995 141.86471741 97.67625427 143.12893677 C97 146 97 146 96 148 C75.87 148 55.74 148 35 148 C29.25573785 127.32065625 29.25573785 127.32065625 27.10913086 118.31225586 C26.86123306 117.28354874 26.61333527 116.25484161 26.35792542 115.19496155 C25.55721672 111.86897192 24.76095977 108.54193536 23.96484375 105.21484375 C23.39891166 102.85984521 22.83270855 100.50491178 22.26625061 98.15003967 C20.7870745 91.99745261 19.31175153 85.84394797 17.83721924 79.69024658 C16.63978203 74.69571252 15.43967038 69.70182299 14.23940182 64.70796871 C7.84702607 38.11157072 7.84702607 38.11157072 5.33248901 27.56881714 C4.48080397 23.99912533 3.61832729 20.4323822 2.74490356 16.86795044 C2.37361663 15.33588137 2.00234858 13.80380773 1.63110352 12.27172852 C1.4629032 11.5971482 1.29470289 10.92256788 1.1214056 10.22754574 C0.25286032 6.61643835 0 3.78975569 0 0 Z " fill="#FFFFFF" transform="translate(21,51)"/>
<path d="M0 0 C13.715625 -0.04125 27.43125 -0.0825 41.5625 -0.125 C45.8635376 -0.14320801 50.1645752 -0.16141602 54.59594727 -0.18017578 C59.92370605 -0.18920898 59.92370605 -0.18920898 62.43247986 -0.19088745 C64.1526646 -0.19392138 65.87284559 -0.20087621 67.59300232 -0.21115112 C86.94461543 -0.32077699 107.02124127 -0.17074262 122.0078125 13.8828125 C129.386297 21.75525412 131.37042626 30.66711077 131.2109375 41.2890625 C130.47280732 50.77540228 127.10838793 59.33233573 120.0078125 65.8203125 C116.49086906 68.56750983 113.19397753 70.43725274 109 72 C109.70125 72.3403125 110.4025 72.680625 111.125 73.03125 C122.33855187 78.75991237 129.5352131 85.71598284 133.61328125 97.8203125 C135.69231139 109.5384824 134.30321673 121.19752187 127.875 131.25 C119.95451457 141.84385682 107.64521266 146.01011322 95 148 C91.70953428 148.24536293 88.44241897 148.25484406 85.14404297 148.22705078 C84.20117998 148.22729185 83.25831699 148.22753292 82.2868824 148.2277813 C79.27188393 148.22630311 76.25714101 148.21113975 73.2421875 148.1953125 C71.36596801 148.19236742 69.48974686 148.19032985 67.61352539 148.18920898 C60.70065833 148.17877553 53.78782659 148.15085303 46.875 148.125 C31.40625 148.08375 15.9375 148.0425 0 148 C0 99.16 0 50.32 0 0 Z M50 38 C50 44.6 50 51.2 50 58 C53.35466148 58.08137993 56.70732391 58.14068359 60.0625 58.1875 C61.47692383 58.22520508 61.47692383 58.22520508 62.91992188 58.26367188 C68.74376672 58.3245483 72.89978285 57.9057014 78 55 C80.67089167 50.99366249 80.70693873 47.71008572 80 43 C77.80168636 39.96784325 76.55036806 39.18345602 73 38 C71.22686149 37.91790208 69.45079225 37.89253706 67.67578125 37.90234375 C66.64775391 37.90556641 65.61972656 37.90878906 64.56054688 37.91210938 C62.95276367 37.92467773 62.95276367 37.92467773 61.3125 37.9375 C59.68731445 37.94426758 59.68731445 37.94426758 58.02929688 37.95117188 C55.35284106 37.96296243 52.67641361 37.98089792 50 38 Z M50 91 C50 97.27 50 103.54 50 110 C54.56313093 110.10786127 59.12371597 110.18726757 63.6875 110.25 C64.98107422 110.28351563 66.27464844 110.31703125 67.60742188 110.3515625 C68.85458984 110.36445313 70.10175781 110.37734375 71.38671875 110.390625 C72.53358154 110.41157227 73.68044434 110.43251953 74.86206055 110.45410156 C78.69248684 109.89978795 80.30857017 108.73820806 83 106 C84.21645511 101.89446399 84.26054288 99.7267775 82.8125 95.6875 C80.87209643 92.81034989 80.16503967 92.17181019 77 91 C73.99853173 90.72504061 73.99853173 90.72504061 70.703125 90.8046875 C69.49785156 90.81113281 68.29257812 90.81757813 67.05078125 90.82421875 C65.79652344 90.84097656 64.54226563 90.85773438 63.25 90.875 C61.98027344 90.88402344 60.71054687 90.89304687 59.40234375 90.90234375 C56.26814871 90.92590913 53.13405059 90.96177987 50 91 Z " fill="#FFFFFF" transform="translate(392,51)"/>
<path d="M0 0 C34.32 0 68.64 0 104 0 C104 12.54 104 25.08 104 38 C85.85 38 67.7 38 49 38 C49 43.61 49 49.22 49 55 C64.84 55 80.68 55 97 55 C97 66.88 97 78.76 97 91 C81.16 91 65.32 91 49 91 C49 97.6 49 104.2 49 111 C67.15 111 85.3 111 104 111 C104 123.21 104 135.42 104 148 C69.68 148 35.36 148 0 148 C0 99.16 0 50.32 0 0 Z " fill="#FFFFFF" transform="translate(268,51)"/>
<path d="M0 0 C38.61 0 77.22 0 117 0 C117 37.72164948 117 37.72164948 100 57 C96.02843572 61.56704001 92.2061321 66.2152225 88.5 71 C84.25197748 76.4836012 79.82089636 81.77301206 75.28271484 87.01806641 C68.86216514 94.44873209 62.89401769 102.14130975 57 110 C86.7 110.495 86.7 110.495 117 111 C117 123.21 117 135.42 117 148 C78.39 148 39.78 148 0 148 C0 112 0 112 11 99 C12.78895964 96.76438507 14.56460093 94.51786233 16.3125 92.25 C20.44988169 86.92183004 24.69615684 81.69447449 29 76.5 C33.27227825 71.33995309 37.49970182 66.15340643 41.625 60.875 C47.36041447 53.53900474 53.18289132 46.27138585 59 39 C29.795 38.505 29.795 38.505 0 38 C0 25.46 0 12.92 0 0 Z " fill="#FFFFFF" transform="translate(861,51)"/>
<path d="M0 0 C16.17 0 32.34 0 49 0 C49 48.84 49 97.68 49 148 C32.83 148 16.66 148 0 148 C0 99.16 0 50.32 0 0 Z " fill="#FFFFFF" transform="translate(788,51)"/>
</svg>
